<svg width="36" height="36" viewBox="0 0 36 36" fill="none" xmlns="http://www.w3.org/2000/svg">
<path d="M28.065 29.25C26.82 31.11 25.5 32.925 23.49 32.955C21.48 33 20.835 31.77 18.555 31.77C16.26 31.77 15.555 32.925 13.65 33C11.685 33.075 10.2 31.02 8.94 29.205C6.375 25.5 4.41 18.675 7.05 14.085C8.355 11.805 10.695 10.365 13.23 10.32C15.15 10.29 16.98 11.625 18.165 11.625C19.335 11.625 21.555 10.02 23.88 10.26C24.855 10.305 27.585 10.65 29.34 13.23C29.205 13.32 26.085 15.15 26.115 18.945C26.16 23.475 30.09 24.99 30.135 25.005C30.09 25.11 29.505 27.165 28.065 29.25ZM19.5 5.25C20.595 4.005 22.41 3.06 23.91 3C24.105 4.755 23.4 6.525 22.35 7.785C21.315 9.06 19.605 10.05 17.925 9.915C17.7 8.19 18.54 6.39 19.5 5.25Z" fill="black"/>
</svg>
